HIERARCHY
ROOT joint_Root
{
	OFFSET 0.0 0.0 0.0
	CHANNELS 6 Xposition Yposition Zposition Zrotation Xrotation Yrotation 
	JOINT Hips
	{
		OFFSET 4.5925 91.4895 -427.239
		CHANNELS 6 Xposition Yposition Zposition Zrotation Xrotation Yrotation 
		JOINT Spine
		{
			OFFSET 15.7357 0.0 0.0
			CHANNELS 6 Xposition Yposition Zposition Zrotation Xrotation Yrotation 
			JOINT Chest
			{
				OFFSET 8.98455 -0.406207 0.0
				CHANNELS 6 Xposition Yposition Zposition Zrotation Xrotation Yrotation 
				JOINT Neck
				{
					OFFSET 16.3773 0.0 0.0
					CHANNELS 6 Xposition Yposition Zposition Zrotation Xrotation Yrotation 
					JOINT Head
					{
						OFFSET 6.45672 0.0 0.0
						CHANNELS 6 Xposition Yposition Zposition Zrotation Xrotation Yrotation 
						End Site
						{
							OFFSET 0.0 0.0 0.0
						}
					}
				}
				JOINT Shoulder_L
				{
					OFFSET 12.9942 -0.242716 4.98039
					CHANNELS 6 Xposition Yposition Zposition Zrotation Xrotation Yrotation 
					JOINT UpperArm_L
					{
						OFFSET 5.34809 0.0 0.0
						CHANNELS 6 Xposition Yposition Zposition Zrotation Xrotation Yrotation 
						JOINT LowerArm_L
						{
							OFFSET 24.3286 1.87007e-05 0.0
							CHANNELS 6 Xposition Yposition Zposition Zrotation Xrotation Yrotation 
							JOINT Hand_L
							{
								OFFSET 22.2916 0.0 0.0
								CHANNELS 6 Xposition Yposition Zposition Zrotation Xrotation Yrotation 
								End Site
								{
									OFFSET 0.0 0.0 0.0
								}
							}
						}
					}
				}
				JOINT Shoulder_R
				{
					OFFSET 12.9945 -0.242716 -4.98039
					CHANNELS 6 Xposition Yposition Zposition Zrotation Xrotation Yrotation 
					JOINT UpperArm_R
					{
						OFFSET -5.34813 0.0 0.0
						CHANNELS 6 Xposition Yposition Zposition Zrotation Xrotation Yrotation 
						JOINT LowerArm_R
						{
							OFFSET -24.3289 0.000322201 0.0
							CHANNELS 6 Xposition Yposition Zposition Zrotation Xrotation Yrotation 
							JOINT Hand_R
							{
								OFFSET -22.2915 -0.000108084 0.0
								CHANNELS 6 Xposition Yposition Zposition Zrotation Xrotation Yrotation 
								End Site
								{
									OFFSET 0.0 0.0 0.0
								}
							}
						}
					}
				}
			}
		}
		JOINT UpperLeg_L
		{
			OFFSET -2.19248 -6.46944 0.0
			CHANNELS 6 Xposition Yposition Zposition Zrotation Xrotation Yrotation 
			JOINT LowerLeg_L
			{
				OFFSET 39.0811 0.0 -1.23785e-05
				CHANNELS 6 Xposition Yposition Zposition Zrotation Xrotation Yrotation 
				JOINT Foot_L
				{
					OFFSET 40.9854 0.0 -1.26872e-05
					CHANNELS 6 Xposition Yposition Zposition Zrotation Xrotation Yrotation 
					JOINT Toes_L
					{
						OFFSET 11.7543 0.0 0.0
						CHANNELS 6 Xposition Yposition Zposition Zrotation Xrotation Yrotation 
						End Site
						{
							OFFSET 0.0 0.0 0.0
						}
					}
				}
			}
		}
		JOINT UpperLeg_R
		{
			OFFSET -2.19251 6.46944 0.0
			CHANNELS 6 Xposition Yposition Zposition Zrotation Xrotation Yrotation 
			JOINT LowerLeg_R
			{
				OFFSET -39.0811 -0.00228153 -0.0401928
				CHANNELS 6 Xposition Yposition Zposition Zrotation Xrotation Yrotation 
				JOINT Foot_R
				{
					OFFSET -40.9854 0.0 0.0
					CHANNELS 6 Xposition Yposition Zposition Zrotation Xrotation Yrotation 
					JOINT Toes_R
					{
						OFFSET -11.7543 0.0 0.0
						CHANNELS 6 Xposition Yposition Zposition Zrotation Xrotation Yrotation 
						End Site
						{
							OFFSET 0.0 0.0 0.0
						}
					}
				}
			}
		}
	}
}
MOTION
Frames:	7
Frame Time:	0.0333333
0.000000 0.000000 0.000000 0.000000 0.000000 -0.000000 -1.288060 92.595800 -0.398312 88.663100 -0.515964 2.360590 15.735700 0.000005 -0.000001 73.654100 87.201300 -73.360600 8.984550 -0.406207 -0.000000 -2.391130 -1.600810 0.553619 16.377300 -0.000001 -0.000001 6.993310 -3.078700 1.813630 6.456720 -0.000001 -0.000000 3.292430 -2.611010 1.849630 12.994200 -0.242716 4.980390 -84.377500 -9.953700 -60.336900 5.348090 -0.000007 -0.000001 -51.899100 -64.355000 -90.535900 24.328600 0.000019 0.000005 7.446650 5.731810 -52.617200 22.291600 -0.000001 0.000005 16.172400 5.366780 -1.887210 12.994500 -0.242716 -4.980390 94.668400 -10.561400 -65.985900 -5.348130 -0.000001 -0.000004 -37.106100 -64.803700 -76.344800 -24.328900 0.000322 -0.000009 -8.152510 -6.986490 -49.661900 -22.291500 -0.000108 -0.000004 20.192400 5.540980 -8.285370 -2.192480 -6.469440 -0.000000 -174.716000 -13.694500 -3.474810 39.081100 -0.000007 -0.000012 -0.085280 0.229908 20.351400 40.985400 -0.000006 -0.000013 -0.119541 9.448510 -64.365400 11.754300 -0.000000 0.000003 -0.000136 -0.001339 -16.628600 -2.192510 6.469440 -0.000001 177.664000 26.016900 178.360000 -39.081100 -0.002282 -0.040193 0.008601 -0.015374 18.948300 -40.985400 0.000008 0.000006 6.529270 16.569200 -65.885300 -11.754300 -0.000006 -0.000006 -0.001073 -0.016442 -17.241800
0.000000 0.000000 0.000000 0.000000 0.000000 -0.000000 -1.271320 92.628600 -0.570509 88.719800 -0.473215 2.443530 15.735700 0.000005 -0.000001 73.040200 87.124000 -72.790600 8.984550 -0.406207 -0.000000 -2.260810 -1.699200 0.465756 16.377300 -0.000001 -0.000001 6.663400 -3.239240 1.774900 6.456720 -0.000001 -0.000000 3.182990 -2.709930 1.933470 12.994200 -0.242716 4.980390 -84.985000 -9.083650 -60.933600 5.348090 -0.000007 -0.000001 -46.172000 -63.094700 -83.013300 24.328600 0.000019 0.000005 7.556000 5.076960 -56.291200 22.291600 -0.000001 0.000005 16.128500 5.362750 -1.763580 12.994500 -0.242716 -4.980390 94.244800 -9.824970 -66.493200 -5.348130 -0.000001 -0.000004 -35.845700 -62.591000 -73.444000 -24.328900 0.000322 -0.000009 -8.331610 -6.754960 -51.226200 -22.291500 -0.000108 -0.000004 19.844200 5.531300 -7.851710 -2.192480 -6.469440 -0.000000 -174.785000 -13.711600 -3.423420 39.081100 -0.000007 -0.000012 -0.084827 0.231238 20.145000 40.985400 -0.000006 -0.000013 -0.103532 9.536150 -64.135200 11.754300 -0.000000 0.000003 -0.000142 -0.001387 -16.630300 -2.192510 6.469440 -0.000001 177.559000 26.296900 178.524000 -39.081100 -0.002282 -0.040193 0.008010 -0.013908 18.621100 -40.985400 0.000008 0.000006 6.452600 16.843300 -65.752800 -11.754300 -0.000006 -0.000006 -0.001039 -0.015959 -17.222100
0.000000 0.000000 0.000000 0.000000 0.000000 -0.000000 -1.238880 92.634000 -0.775845 88.703100 -0.587771 2.513430 15.735700 0.000005 -0.000001 73.478400 87.026800 -73.239700 8.984550 -0.406207 -0.000000 -2.061900 -1.711020 0.446619 16.377300 -0.000001 -0.000001 6.152870 -3.201190 1.749250 6.456720 -0.000001 -0.000000 2.919470 -2.812270 1.969360 12.994200 -0.242716 4.980390 -85.578100 -8.188280 -61.500800 5.348090 -0.000007 -0.000001 -41.139700 -60.629500 -74.786400 24.328600 0.000019 0.000005 7.433870 4.104250 -61.258000 22.291600 -0.000001 0.000005 16.073300 5.356190 -1.563840 12.994500 -0.242716 -4.980390 93.667300 -8.743590 -67.138600 -5.348130 -0.000001 -0.000004 -34.225800 -59.536600 -69.436900 -24.328900 0.000322 -0.000009 -8.170430 -6.059000 -53.674200 -22.291500 -0.000108 -0.000004 19.896700 5.518660 -7.305690 -2.192480 -6.469440 -0.000000 -174.810000 -13.844100 -3.543230 39.081100 -0.000007 -0.000012 -0.082290 0.223078 20.248100 40.985400 -0.000006 -0.000013 -0.058136 9.515900 -64.048400 11.754300 -0.000000 0.000003 -0.000136 -0.001337 -16.628500 -2.192510 6.469440 -0.000001 177.441000 26.663400 178.494000 -39.081100 -0.002282 -0.040193 -0.007375 0.031866 18.559300 -40.985400 0.000008 0.000006 5.870500 17.452000 -65.405100 -11.754300 -0.000006 -0.000006 -0.001136 -0.017322 -17.277500
0.000000 0.000000 0.000000 0.000000 0.000000 -0.000000 -1.201770 92.635200 -0.983349 88.735600 -0.912554 2.628230 15.735700 0.000005 -0.000001 75.848000 86.905300 -75.641100 8.984550 -0.406207 -0.000000 -1.761790 -1.530140 0.390088 16.377300 -0.000001 -0.000001 5.606750 -3.118290 1.642700 6.456720 -0.000001 -0.000000 2.486310 -3.034930 2.079920 12.994200 -0.242716 4.980390 -86.299700 -7.121410 -62.451600 5.348090 -0.000007 -0.000001 -36.630700 -57.095400 -65.946500 24.328600 0.000019 0.000005 7.378050 3.169670 -66.875200 22.291600 -0.000001 0.000005 15.875100 5.352690 -1.458170 12.994500 -0.242716 -4.980390 92.891300 -7.157440 -67.936400 -5.348130 -0.000001 -0.000004 -32.007800 -55.635300 -64.215500 -24.328900 0.000322 -0.000009 -8.154710 -5.344880 -56.971500 -22.291500 -0.000108 -0.000004 20.469500 5.507330 -6.833190 -2.192480 -6.469440 -0.000000 -174.877000 -14.002600 -3.557920 39.081100 -0.000007 -0.000012 -0.080119 0.216401 20.316300 40.985400 -0.000006 -0.000013 -0.047634 9.306890 -63.971200 11.754300 -0.000000 0.000003 -0.000134 -0.001321 -16.627900 -2.192510 6.469440 -0.000001 177.283000 26.605800 178.444000 -39.081100 -0.002282 -0.040193 -0.022533 0.077013 18.559400 -40.985400 0.000008 0.000006 5.147650 17.913900 -65.004700 -11.754300 -0.000006 -0.000006 -0.001319 -0.019842 -17.380000
0.000000 0.000000 0.000000 0.000000 0.000000 -0.000000 -1.158740 92.619100 -1.231840 88.765000 -1.268390 2.750970 15.735700 0.000005 -0.000001 76.643000 86.745300 -76.431100 8.984550 -0.406207 -0.000000 -1.430060 -1.520440 0.404594 16.377300 -0.000001 -0.000001 4.981660 -2.839390 1.515550 6.456720 -0.000001 -0.000000 2.163180 -2.937640 1.967830 12.994200 -0.242716 4.980390 -87.120000 -5.761010 -63.382500 5.348090 -0.000007 -0.000001 -33.339200 -52.183200 -57.105100 24.328600 0.000019 0.000005 7.906680 2.506830 -72.518000 22.291600 -0.000001 0.000005 15.893600 5.346740 -1.279630 12.994500 -0.242716 -4.980390 92.033600 -5.398260 -69.326800 -5.348130 -0.000001 -0.000004 -29.913400 -50.879100 -58.003900 -24.328900 0.000322 -0.000009 -8.135290 -4.528910 -61.081700 -22.291500 -0.000108 -0.000004 20.635600 5.499140 -6.498730 -2.192480 -6.469440 -0.000000 -174.945000 -14.093300 -3.690250 39.081100 -0.000007 -0.000012 -0.082626 0.220426 20.548400 40.985400 -0.000006 -0.000013 -0.040584 9.029670 -63.935200 11.754300 -0.000000 0.000003 -0.000150 -0.001453 -16.632800 -2.192510 6.469440 -0.000001 177.180000 26.392800 178.258000 -39.081100 -0.002282 -0.040193 -0.035897 0.115635 18.735700 -40.985400 0.000008 0.000006 4.486430 18.207400 -64.656800 -11.754300 -0.000006 -0.000006 -0.001386 -0.020744 -17.416600
0.000000 0.000000 0.000000 0.000000 0.000000 -0.000000 -1.106900 92.594700 -1.475330 88.823700 -1.669960 3.040210 15.735700 0.000005 -0.000001 77.416200 86.518800 -77.230500 8.984550 -0.406207 -0.000000 -0.968464 -1.530700 0.358306 16.377300 -0.000001 -0.000001 4.243290 -2.549220 1.371780 6.456720 -0.000001 -0.000000 2.072980 -2.819250 2.011500 12.994200 -0.242716 4.980390 -87.950200 -4.254120 -64.244900 5.348090 -0.000007 -0.000001 -32.031900 -45.779700 -49.078000 24.328600 0.000019 0.000005 8.218990 1.904920 -77.038900 22.291600 -0.000001 0.000005 15.744200 5.344070 -1.199870 12.994500 -0.242716 -4.980390 91.143000 -3.340990 -71.110200 -5.348130 -0.000001 -0.000004 -27.808300 -45.111800 -50.687100 -24.328900 0.000322 -0.000009 -8.147370 -3.763800 -65.360500 -22.291500 -0.000108 -0.000004 20.691400 5.493000 -6.254160 -2.192480 -6.469440 -0.000000 -175.007000 -14.231100 -3.641310 39.081100 -0.000007 -0.000012 -0.082383 0.216832 20.803700 40.985400 -0.000006 -0.000013 -0.015946 8.763530 -63.932500 11.754300 -0.000000 0.000003 -0.000150 -0.001455 -16.632900 -2.192510 6.469440 -0.000001 177.001000 26.030600 178.184000 -39.081100 -0.002282 -0.040193 -0.044488 0.138459 19.050400 -40.985400 0.000008 0.000006 4.089830 18.321800 -64.466700 -11.754300 -0.000006 -0.000006 -0.001566 -0.023141 -17.514100
0.000000 0.000000 0.000000 0.000000 0.000000 -0.000000 -1.064280 92.560400 -1.717290 88.865500 -2.067010 3.312080 15.735700 0.000005 -0.000001 78.967100 86.303500 -78.817500 8.984550 -0.406207 -0.000000 -0.507747 -1.425290 0.292772 16.377300 -0.000001 -0.000001 3.555220 -2.382890 1.296000 6.456720 -0.000001 -0.000000 1.994610 -2.621020 1.971380 12.994200 -0.242716 4.980390 -88.833000 -2.539930 -65.317500 5.348090 -0.000007 -0.000001 -32.427200 -38.202000 -41.921300 24.328600 0.000019 0.000005 8.809830 1.692840 -79.208100 22.291600 -0.000001 0.000005 15.776900 5.340280 -1.087590 12.994500 -0.242716 -4.980390 90.310900 -1.003020 -72.810600 -5.348130 -0.000001 -0.000004 -25.955300 -38.044600 -43.156300 -24.328900 0.000322 -0.000009 -8.695120 -3.433540 -68.609700 -22.291500 -0.000108 -0.000004 20.444000 5.486720 -6.008050 -2.192480 -6.469440 -0.000000 -175.026000 -14.475500 -3.645450 39.081100 -0.000007 -0.000012 -0.081641 0.211162 21.137900 40.985400 -0.000006 -0.000013 0.027626 8.643770 -63.969200 11.754300 -0.000000 0.000003 -0.000146 -0.001419 -16.631500 -2.192510 6.469440 -0.000001 176.860000 25.694600 178.064000 -39.081100 -0.002282 -0.040193 -0.053805 0.162154 19.407400 -40.985400 0.000008 0.000006 3.671090 18.452300 -64.284600 -11.754300 -0.000006 -0.000006 -0.001679 -0.024626 -17.574500
